<svg width="107" height="869" fill="none" xmlns="http://www.w3.org/2000/svg"><path d="m.542 356.351-.458.037v16.179l.524-.019c24.516-1.01 44.513-21.072 45.524-45.682l.018-.524H30.028l-.038.458c-1.198 15.655-13.849 28.362-29.448 29.551Z" fill="#D6B09B"/><path d="m30.009 431.892.038.468h16.178l-.018-.524C45.196 407.32 25.134 387.323.524 386.313L0 386.294v16.123l.459.037c15.654 1.198 28.352 13.849 29.55 29.438Z" fill="#FF4338"/><path d="m.542 247.599-.458.037v16.179l.524-.019c24.516-1.01 44.513-21.072 45.524-45.682l.018-.524H30.028l-.038.458c-1.198 15.655-13.849 28.363-29.448 29.551ZM30.009 323.142l.038.468h16.178l-.018-.524C45.196 298.57 25.134 278.573.524 277.563L0 277.544v16.123l.459.037c15.654 1.188 28.352 13.849 29.55 29.438ZM105.679 404.223l.459-.037v-16.179l-.524.019c-24.516 1.01-44.513 21.072-45.524 45.682l-.009.524h16.123l.037-.458c1.189-15.655 13.85-28.353 29.438-29.551ZM76.212 328.681l-.037-.458H59.996l.019.524c1.01 24.516 21.073 44.513 45.682 45.523l.524.019v-16.132l-.458-.038c-15.655-1.188-28.353-13.849-29.55-29.438ZM105.679 295.473l.459-.037v-16.179l-.524.019c-24.517 1.01-44.513 21.072-45.524 45.682l-.019.524h16.123l.037-.458c1.198-15.655 13.859-28.362 29.448-29.551Z" fill="#D6B09B"/><path d="m76.212 219.929-.037-.458H59.996l.019.524c1.01 24.516 21.073 44.513 45.682 45.523l.524.019v-16.123l-.458-.037c-15.655-1.198-28.353-13.859-29.55-29.448Z" fill="#FF4338"/><path d="m.542 790.382-.458.038v16.178l.524-.018c24.516-1.011 44.513-21.073 45.524-45.683l.018-.524H30.028l-.038.459c-1.198 15.654-13.849 28.362-29.448 29.55ZM30.009 865.924l.038.468h16.178l-.018-.524c-1.011-24.516-21.073-44.513-45.683-45.523L0 820.326v16.123l.459.037c15.654 1.198 28.352 13.849 29.55 29.438ZM.542 681.63l-.458.038v16.178l.524-.018c24.516-1.011 44.513-21.073 45.524-45.683l.018-.524H30.028l-.038.459c-1.198 15.654-13.849 28.362-29.448 29.55ZM30.009 757.173l.038.468h16.178l-.018-.524c-1.011-24.516-21.073-44.513-45.683-45.523L0 711.575v16.123l.459.037c15.654 1.189 28.352 13.849 29.55 29.438ZM105.679 838.254l.459-.037v-16.179l-.524.019c-24.516 1.01-44.513 21.073-45.524 45.682l-.009.524h16.123l.037-.458c1.189-15.655 13.85-28.353 29.438-29.551ZM76.212 762.712l-.037-.458H59.996l.019.524c1.01 24.516 21.073 44.513 45.682 45.523l.524.019v-16.132l-.458-.037c-15.655-1.189-28.353-13.849-29.55-29.439ZM105.679 729.504l.459-.037v-16.179l-.524.019c-24.517 1.01-44.513 21.073-45.524 45.682l-.019.524h16.123l.037-.458c1.198-15.655 13.859-28.362 29.448-29.551ZM75.671 653.96l-.037-.458H59.455l.019.524c1.01 24.516 21.073 44.513 45.682 45.523l.524.019v-16.123l-.458-.037c-15.655-1.198-28.353-13.858-29.55-29.448ZM.542 138.761l-.458.037v16.179l.524-.018c24.516-1.011 44.513-21.073 45.524-45.683l.018-.524H30.028l-.038.458c-1.198 15.655-13.849 28.363-29.448 29.551ZM30.009 214.302l.038.468h16.178l-.018-.524C45.196 189.73 25.134 169.733.524 168.723L0 168.704v16.123l.459.037c15.654 1.198 28.352 13.849 29.55 29.438ZM.542 30.009l-.458.038v16.178l.524-.018C25.124 45.196 45.121 25.134 46.132.524L46.15 0H30.028l-.038.459C28.792 16.113 16.141 28.82.542 30.009ZM30.009 105.552l.038.468h16.178l-.018-.524C45.196 80.98 25.134 60.983.524 59.973L0 59.954v16.123l.459.037c15.654 1.189 28.352 13.849 29.55 29.438ZM105.679 186.633l.459-.037v-16.179l-.524.019c-24.516 1.01-44.513 21.072-45.524 45.682l-.009.524h16.123l.037-.458c1.189-15.655 13.85-28.353 29.438-29.551ZM76.212 111.091l-.037-.458H59.996l.019.524c1.01 24.516 21.073 44.513 45.682 45.523l.524.019v-16.132l-.458-.038c-15.655-1.188-28.353-13.848-29.55-29.438ZM105.679 77.883l.459-.037V61.667l-.524.019c-24.517 1.01-44.513 21.072-45.524 45.682l-.019.524h16.123l.037-.458c1.198-15.655 13.859-28.362 29.448-29.55Z" fill="#D6B09B"/><path d="m76.212 2.34-.037-.46H59.996l.019.525c1.01 24.516 21.073 44.513 45.682 45.523l.524.019V31.824l-.458-.037C90.108 30.589 77.41 17.929 76.213 2.339Z" fill="#FF4338"/><path d="m.542 572.792-.458.038v16.179l.524-.019c24.516-1.011 44.513-21.073 45.524-45.683l.018-.524H30.028l-.038.459c-1.198 15.655-13.849 28.362-29.448 29.55ZM30.009 648.334l.038.468h16.178l-.018-.524c-1.011-24.517-21.073-44.513-45.683-45.524L0 602.735v16.123l.459.037c15.654 1.198 28.352 13.849 29.55 29.439ZM.542 464.041l-.458.038v16.179l.524-.019c24.516-1.011 44.513-21.073 45.524-45.683l.018-.524H30.028l-.038.459c-1.198 15.655-13.849 28.362-29.448 29.55ZM30.009 539.583l.038.468h16.178l-.018-.524C45.196 515.01 25.134 495.014.524 494.003L0 493.984v16.123l.459.037c15.654 1.189 28.352 13.849 29.55 29.439ZM105.679 621.189l.459-.037v-16.179l-.524.018c-24.516 1.011-44.513 21.073-45.524 45.683l-.009.524h16.123l.037-.459c1.189-15.654 13.85-28.352 29.438-29.55ZM76.212 545.123l-.037-.458H59.996l.019.524c1.01 24.516 21.073 44.513 45.682 45.523l.524.019v-16.132l-.458-.037c-15.655-1.189-28.353-13.849-29.55-29.439ZM105.679 511.915l.459-.038v-16.179l-.524.019C81.097 496.728 61.101 516.79 60.09 541.4l-.019.524h16.123l.037-.459c1.198-15.655 13.859-28.362 29.448-29.55Z" fill="#D6B09B"/><path d="m76.212 436.372-.037-.459H59.996l.019.524c1.01 24.516 21.073 44.513 45.682 45.524l.524.018v-16.122l-.458-.038c-15.655-1.198-28.353-13.858-29.55-29.447Z" fill="#FF4338"/></svg>