<svg width="320" height="40" fill="none" xmlns="http://www.w3.org/2000/svg"><path d="m188.839.2-.014-.169h-5.971l.007.193c.373 9.048 7.777 16.428 16.859 16.8l.194.008v-5.95l-.17-.014c-5.777-.442-10.467-5.111-10.905-10.868Z" fill="#D6B09B"/><path d="m160.96 11.075-.172.014v5.97l.193-.007c9.048-.372 16.427-7.776 16.8-16.859l.007-.193h-5.95l-.014.17c-.442 5.777-5.11 10.463-10.864 10.905Z" fill="#FF4338"/><path d="m228.974.2-.014-.169h-5.971l.007.193c.373 9.048 7.777 16.428 16.859 16.8l.193.008v-5.95l-.169-.014c-5.777-.442-10.467-5.111-10.905-10.868ZM201.095 11.075l-.173.014v5.97l.193-.007c9.048-.372 16.428-7.776 16.801-16.859l.007-.193h-5.95l-.014.17c-.439 5.777-5.111 10.463-10.864 10.905ZM171.171 39l.014.17h5.971l-.007-.193c-.373-9.048-7.777-16.428-16.859-16.8l-.193-.004v5.95l.169.014c5.777.438 10.463 5.11 10.905 10.864ZM199.05 28.126l.169-.014v-5.97l-.193.006c-9.048.373-16.427 7.777-16.8 16.86l-.007.193h5.953l.014-.17c.439-5.777 5.111-10.463 10.864-10.905ZM211.306 39l.014.17h5.97l-.007-.193c-.372-9.048-7.776-16.428-16.859-16.8l-.193-.008v5.95l.169.014c5.778.442 10.467 5.115 10.906 10.868Z" fill="#D6B09B"/><path d="m239.185 28.126.169-.014v-5.97l-.193.006c-9.048.373-16.427 7.777-16.8 16.86l-.007.193h5.95l.014-.17c.442-5.777 5.114-10.463 10.867-10.905Z" fill="#FF4338"/><path d="m28.742.2-.014-.169h-5.97l.007.193c.372 9.048 7.776 16.428 16.859 16.8l.193.008v-5.95l-.17-.014C33.87 10.626 29.182 5.957 28.743.2ZM.863 11.075l-.172.014v5.97l.193-.007c9.048-.372 16.427-7.776 16.8-16.859L17.692 0h-5.95l-.014.17C11.286 5.946 6.617 10.632.863 11.074ZM68.877.2l-.014-.169h-5.97l.006.193c.373 9.048 7.777 16.428 16.86 16.8l.193.008v-5.95l-.17-.014C74.005 10.626 69.317 5.957 68.877.2ZM40.998 11.075l-.173.014v5.97l.193-.007c9.048-.372 16.428-7.776 16.8-16.859L57.827 0h-5.95l-.014.17c-.439 5.777-5.111 10.463-10.864 10.905ZM11.075 39l.014.17h5.97l-.007-.193c-.372-9.048-7.776-16.428-16.859-16.8L0 22.172v5.95l.17.014c5.777.438 10.463 5.11 10.905 10.864ZM38.954 28.126l.169-.014v-5.97l-.194.006c-9.047.373-16.427 7.777-16.8 16.86l-.007.193h5.954l.013-.17c.439-5.777 5.111-10.463 10.865-10.905ZM51.209 39l.014.17h5.97l-.006-.193c-.373-9.048-7.777-16.428-16.86-16.8l-.193-.008v5.95l.17.014c5.777.442 10.466 5.115 10.905 10.868ZM79.088 27.927l.17-.014v-5.971l-.194.007c-9.047.373-16.427 7.777-16.8 16.859l-.007.193h5.95l.014-.169c.442-5.777 5.114-10.463 10.867-10.905ZM268.79.2l-.014-.169h-5.97l.007.193c.373 9.048 7.776 16.428 16.859 16.8l.193.008v-5.95l-.169-.014C273.918 10.626 269.229 5.957 268.79.2ZM240.912 11.075l-.173.014v5.97l.194-.007c9.047-.372 16.427-7.776 16.8-16.859L257.74 0h-5.95l-.014.17c-.442 5.777-5.111 10.463-10.864 10.905ZM308.925.2l-.014-.169h-5.97l.007.193c.373 9.048 7.776 16.428 16.859 16.8l.193.008v-5.95l-.169-.014c-5.778-.442-10.467-5.111-10.906-10.868ZM281.046 11.075l-.173.014v5.97l.194-.007c9.047-.372 16.427-7.776 16.8-16.859l.007-.193h-5.95l-.014.17c-.438 5.777-5.111 10.463-10.864 10.905ZM251.123 39l.014.17h5.971l-.007-.193c-.373-9.048-7.777-16.428-16.859-16.8l-.194-.004v5.95l.17.014c5.777.438 10.463 5.11 10.905 10.864ZM279.002 28.126l.169-.014v-5.97l-.193.006c-9.048.373-16.428 7.777-16.801 16.86l-.007.193h5.954l.014-.17c.438-5.777 5.111-10.463 10.864-10.905ZM291.257 39l.014.17h5.971l-.007-.193c-.373-9.048-7.777-16.428-16.859-16.8l-.194-.008v5.95l.17.014c5.777.442 10.467 5.115 10.905 10.868Z" fill="#D6B09B"/><path d="m319.137 28.126.169-.014v-5.97l-.193.006c-9.048.373-16.428 7.777-16.801 16.86l-.007.193h5.95l.014-.17c.442-5.777 5.114-10.463 10.868-10.905Z" fill="#FF4338"/><path d="m108.887.2-.014-.169h-5.97l.006.193c.373 9.048 7.777 16.428 16.86 16.8l.193.008v-5.95l-.169-.014c-5.778-.442-10.467-5.111-10.906-10.868ZM81.009 11.075l-.173.014v5.97l.193-.007c9.048-.372 16.428-7.776 16.8-16.859L97.838 0h-5.95l-.014.17c-.442 5.777-5.111 10.463-10.864 10.905ZM149.022.2l-.014-.169h-5.971l.007.193c.373 9.048 7.777 16.428 16.859 16.8l.194.008v-5.95l-.17-.014C154.15 10.626 149.46 5.957 149.022.2ZM121.143 11.075l-.173.014v5.97l.194-.007c9.048-.372 16.427-7.776 16.8-16.859l.007-.193h-5.95l-.014.17c-.438 5.777-5.111 10.463-10.864 10.905ZM91.026 39l.014.17h5.971l-.007-.193c-.373-9.048-7.777-16.428-16.859-16.8l-.193-.004v5.95l.169.014c5.777.438 10.463 5.11 10.906 10.864ZM119.098 28.126l.17-.014v-5.97l-.194.006c-9.048.373-16.427 7.777-16.8 16.86l-.007.193h5.953l.014-.17c.439-5.777 5.111-10.463 10.864-10.905ZM131.354 39l.014.17h5.971l-.007-.193c-.373-9.048-7.777-16.428-16.859-16.8l-.194-.008v5.95l.17.014c5.777.442 10.467 5.115 10.905 10.868Z" fill="#D6B09B"/><path d="m159.233 28.126.169-.014v-5.97l-.193.006c-9.048.373-16.428 7.777-16.8 16.86l-.007.193h5.95l.014-.17c.442-5.777 5.114-10.463 10.867-10.905Z" fill="#FF4338"/></svg>