<svg width="178" height="684" fill="none" xmlns="http://www.w3.org/2000/svg"><path d="m90.697 126.961.043-.526h18.582l-.021.601c-1.161 28.159-24.204 51.126-52.47 52.287l-.602.022v-18.518l.527-.043c17.98-1.376 32.576-15.907 33.94-33.823ZM143.533 247.667l-.043.537h-18.583l.022-.602c1.16-28.158 24.203-51.126 52.469-52.287l.602-.021v18.518l-.527.043c-17.98 1.365-32.565 15.906-33.94 33.812ZM177.463 160.804l.537.043v18.583l-.602-.022c-28.158-1.161-51.126-24.203-52.287-52.469l-.021-.602h18.518l.043.527c1.376 17.98 15.906 32.565 33.812 33.94ZM56.768 213.823l-.527-.043v-18.583l.602.022c28.159 1.16 51.126 24.203 52.287 52.469l.021.602H90.623l-.043-.527c-1.365-17.98-15.907-32.565-33.812-33.94ZM18.625 247.667l-.043.537H0l.022-.602c1.16-28.158 24.203-51.126 52.469-52.287l.602-.021v18.518l-.527.043c-17.98 1.365-32.576 15.906-33.94 33.812ZM52.555 160.804l.538.043v18.583l-.602-.022C24.332 178.247 1.365 155.205.204 126.939l-.021-.602H18.7l.043.527c1.365 17.98 15.906 32.565 33.811 33.94ZM90.697 252.728l.043-.527h18.582l-.021.602c-1.161 28.159-24.204 51.126-52.47 52.287l-.602.021v-18.518l.527-.043c17.98-1.375 32.576-15.917 33.94-33.822ZM143.533 373.434l-.043.538h-18.583l.022-.602c1.16-28.159 24.203-51.126 52.469-52.287l.602-.032v18.518l-.527.043c-17.98 1.375-32.565 15.906-33.94 33.822Z" fill="#fff"/><path d="m177.463 286.572.537.043v18.582l-.602-.021c-28.158-1.161-51.126-24.204-52.287-52.47l-.021-.602h18.518l.043.527c1.376 17.981 15.906 32.565 33.812 33.941Z" fill="#CEB9A3"/><path d="m56.768 339.59-.527-.043v-18.582l.602.021c28.159 1.161 51.126 24.204 52.287 52.47l.021.602H90.623l-.043-.527c-1.365-17.981-15.907-32.565-33.812-33.941ZM18.625 373.433l-.043.538H0l.021-.602c1.161-28.159 24.204-51.126 52.47-52.287l.602-.021v18.518l-.527.043c-17.98 1.364-32.576 15.895-33.94 33.811ZM52.555 286.572l.538.043v18.582l-.602-.021c-28.159-1.161-51.126-24.204-52.287-52.47l-.021-.602H18.7l.043.527c1.365 17.981 15.906 32.565 33.811 33.941ZM90.697 378.904l.043-.527h18.582l-.021.602c-1.161 28.158-24.204 51.126-52.47 52.286l-.602.022v-18.518l.527-.043c17.98-1.376 32.576-15.917 33.94-33.822ZM143.533 499.609l-.043.527h-18.583l.022-.602c1.16-28.159 24.203-51.126 52.469-52.287l.602-.011v18.518l-.527.043c-17.98 1.365-32.565 15.907-33.94 33.812ZM177.463 412.747l.537.043v18.582l-.602-.021c-28.158-1.161-51.126-24.204-52.287-52.47l-.021-.602h18.518l.043.527c1.376 17.981 15.906 32.565 33.812 33.941ZM56.768 465.764l-.527-.043v-18.582l.602.021c28.159 1.161 51.126 24.204 52.287 52.47l.021.601H90.623l-.043-.526c-1.365-17.981-15.907-32.565-33.812-33.941ZM18.625 499.608l-.043.527H0l.022-.602c1.16-28.159 24.203-51.126 52.469-52.287l.602-.021v18.518l-.527.043c-17.98 1.375-32.576 15.917-33.94 33.822Z" fill="#fff"/><path d="m52.555 412.747.538.043v18.582l-.602-.021C24.332 430.19 1.365 407.147.204 378.881l-.021-.602H18.7l.043.527c1.365 17.981 15.906 32.565 33.811 33.941Z" fill="#CEB9A3"/><path d="m90.697.623.043-.526h18.582l-.021.602c-1.161 28.158-24.204 51.126-52.47 52.286l-.602.022V34.478l.527-.043C74.736 33.07 89.332 18.539 90.696.623ZM143.533 121.329l-.043.537h-18.583l.022-.602c1.16-28.169 24.203-51.126 52.469-52.286l.602-.022v18.518l-.527.043c-17.98 1.365-32.565 15.906-33.94 33.812ZM177.463 34.467l.537.043v18.583l-.602-.022c-28.158-1.16-51.126-24.203-52.287-52.47L125.09 0h18.518l.043.527c1.376 17.98 15.906 32.565 33.812 33.94ZM56.768 87.486l-.527-.043V68.86l.602.022c28.159 1.16 51.126 24.203 52.287 52.469l.021.602H90.623l-.043-.527c-1.365-17.98-15.907-32.564-33.812-33.94Z" fill="#fff"/><path d="m18.625 121.329-.043.537H0l.021-.602c1.161-28.158 24.204-51.126 52.47-52.286l.602-.022v18.518l-.527.043c-17.98 1.365-32.576 15.906-33.94 33.812Z" fill="#CEB9A3"/><path d="m52.555 34.467.538.043v18.583l-.602-.022C24.332 51.911 1.365 28.868.204.601L.183 0H18.7l.043.527c1.365 17.98 15.906 32.565 33.811 33.94ZM90.697 631.019l.043-.527h18.582l-.021.602c-1.161 28.159-24.204 51.126-52.47 52.287l-.602.021v-18.518l.527-.043c17.98-1.375 32.576-15.906 33.94-33.822ZM177.463 664.864l.537.043v18.582l-.602-.021c-28.158-1.161-51.126-24.204-52.287-52.47l-.021-.602h18.518l.043.527c1.376 17.981 15.906 32.565 33.812 33.941ZM52.555 664.864l.538.043v18.582l-.602-.021c-28.159-1.161-51.126-24.204-52.287-52.47l-.021-.602H18.7l.043.527c1.365 17.981 15.906 32.565 33.811 33.941ZM90.697 504.683l.043-.527h18.582l-.021.602c-1.161 28.159-24.204 51.126-52.47 52.287l-.602.021v-18.528l.527-.043c17.98-1.365 32.576-15.896 33.94-33.812ZM143.533 625.388l-.043.537h-18.583l.022-.602c1.16-28.169 24.203-51.126 52.469-52.287l.602-.021v18.518l-.527.043c-17.98 1.365-32.565 15.906-33.94 33.812ZM177.463 538.526l.537.043v18.582l-.602-.021c-28.158-1.161-51.126-24.204-52.287-52.47l-.021-.601h18.518l.043.526c1.376 17.981 15.906 32.565 33.812 33.941ZM56.768 591.543l-.527-.043v-18.582l.602.021c28.159 1.161 51.126 24.204 52.287 52.47l.021.602H90.623l-.043-.527c-1.365-17.981-15.907-32.565-33.812-33.941ZM18.625 625.388l-.043.537H0l.021-.602c1.161-28.158 24.204-51.126 52.47-52.287l.602-.021v18.518l-.527.043c-17.98 1.365-32.576 15.906-33.94 33.812ZM52.555 538.526l.538.043v18.582l-.602-.021C24.332 555.969 1.365 532.926.204 504.66l-.021-.601H18.7l.043.526c1.365 17.981 15.906 32.565 33.811 33.941Z" fill="#fff"/></svg>